# xmcd
#
# Track frame offsets:
#	150
#	17777
#	33182
#	46569
#	65627
#	78378
#	89315
#	105269
#	119661
#	129956
#
# Disc length: 1916 seconds
#
# Revision: 1
# Processed by: cddbd v1.5.2PL0 Copyright (c) Steve Scherf et al.
# Submitted via: audiograbber 1.83.01
#
DISCID=72077a0a
DTITLE=Various Artist - Country Super Hits Of The 1980s
DYEAR=1900
DGENRE=Country
TTITLE0=David Allan Coe - Mona Lisa Lost Her Smile
TTITLE1=David Frizzell with Coni Lee - You're The Reason God Made Oklahoma
TTITLE2=Red Sovine - I'll Come Back
TTITLE3=David Frizzell - I'm Gonna Hire A Wino To Decorate Our Home
TTITLE4=Norma Jean - Let's Go All The Way
TTITLE5=The Kendalls - Heaven's Just A Sin Away
TTITLE6=Freddie Hart - Roses Are Red
TTITLE7=Mel Street - The One Thing My Lady Never Put Into Words
TTITLE8=Narvel Felts - Mountain Of Love
TTITLE9=Claude King - I Wonder Who She Missed Me With Today
EXTD=
EXTT0=
EXTT1=
EXTT2=
EXTT3=
EXTT4=
EXTT5=
EXTT6=
EXTT7=
EXTT8=
EXTT9=
PLAYORDER=
